<svg id="Rocket_paint" data-name="Rocket paint" xmlns="http://www.w3.org/2000/svg" width="855.157" height="581.907" viewBox="0 0 855.157 581.907">
    <path id="Контур_1" data-name="Контур 1" d="M696.927,503.8a5.5,5.5,0,0,1,5.5,5.5V562.5h105.5a5.5,5.5,0,0,1,0,11h-105.5v184h-11V509.3a5.5,5.5,0,0,1,5.5-5.5Z" transform="translate(-177.185 -177.559)" fill="#e6e6e6"/>
    <path id="Контур_2" data-name="Контур 2" d="M403.333,756.253,383.5,756.8a13.812,13.812,0,0,1-8.486-2.379c-2.154-1.6-3.142-3.768-2.708-5.943l3.9-19.613c.735-3.7,5.27-6.5,10.78-6.649l10.952-.3c5.51-.152,10.192,2.39,11.13,6.044l4.979,19.368c.552,2.148-.314,4.365-2.376,6.083A13.812,13.812,0,0,1,403.333,756.253Z" transform="translate(-177.185 -177.559)" fill="#3f3d56"/>
    <path id="Контур_3" data-name="Контур 3" d="M523.963,755.693l-19.832.548a13.813,13.813,0,0,1-8.486-2.379c-2.154-1.6-3.142-3.768-2.708-5.943l3.9-19.613c.735-3.7,5.27-6.5,10.78-6.649l10.952-.3c5.51-.152,10.192,2.39,11.13,6.044l4.979,19.368c.552,2.148-.314,4.365-2.376,6.083A13.812,13.812,0,0,1,523.963,755.693Z" transform="translate(-177.185 -177.559)" fill="#3f3d56"/>
    <path id="Контур_4" data-name="Контур 4" d="M334.467,589.188a4.331,4.331,0,0,1,1.6-8.308l225.468-6.226a4.33,4.33,0,0,1,4.449,4.208h0a4.336,4.336,0,0,1-4.209,4.448h0L336.3,589.537a4.308,4.308,0,0,1-1.834-.349Z" transform="translate(-177.185 -177.559)" fill="#3f3d56"/>
    <rect id="Прямоугольник_3" data-name="Прямоугольник 3" width="64.474" height="217.68" transform="translate(176.041 338.77) rotate(-1.582)" fill="#e6e6e6"/>
    <path id="Контур_5" data-name="Контур 5" d="M242.126,333.079l-12.389,33.749.011,153.759,15.1,4.329Z" fill="#ccc"/>
    <path id="Контур_6" data-name="Контур 6" d="M385.116,457.681c-12.057.342-21.257,21.209-21.036,29.352l.407,14.742,43.659-1.206-.407-14.742C407.511,477.685,397.174,457.357,385.116,457.681Z" transform="translate(-177.185 -177.559)" fill="#3f3d56"/>
    <path id="Контур_7" data-name="Контур 7" d="M354.063,606.44a8.51,8.51,0,0,1-8.731-8.262l-.662-23.991a8.5,8.5,0,1,1,16.994-.469l.662,23.991A8.51,8.51,0,0,1,354.063,606.44Z" transform="translate(-177.185 -177.559)" fill="#3f3d56"/>
    <path id="Контур_8" data-name="Контур 8" d="M193.233,339.284l-.305-15.855,4.158-.1.305,15.8,3.769,230.346-4.159.115" fill="#3f3d56"/>
    <path id="Контур_9" data-name="Контур 9" d="M425.067,553.92l-74.739,2.064c-7.139-8.705-7.787-45.793,7.111-52.851l5.842-9.92,45.043-2.2,5.264,10.445C421,507.764,424.82,544.62,425.067,553.92Z" transform="translate(-177.185 -177.559)" fill="#e6e6e6"/>
    <path id="Контур_10" data-name="Контур 10" d="M396.936,536.132l-18.9.522c-3.647.1-6.748-4.631-6.911-10.546S373.8,515.3,377.444,515.2l18.9-.522c3.647-.1,6.748,4.631,6.911,10.546S400.583,536.032,396.936,536.132Z" transform="translate(-177.185 -177.559)" fill="#d86161"/>
    <path id="Контур_11" data-name="Контур 11" d="M183.151,465.568l-38.959,27.52-6.806,62.05,45.448-15.185Z" fill="#e6e6e6"/>
    <rect id="Прямоугольник_4" data-name="Прямоугольник 4" width="64.474" height="217.68" transform="translate(300.451 336.105) rotate(-1.582)" fill="#e6e6e6"/>
    <path id="Контур_12" data-name="Контур 12" d="M302,333.806l13.261,33.416,3.979,153.708-14.979,4.719Z" fill="#ccc"/>
    <ellipse id="Эллипс_2" data-name="Эллипс 2" cx="8.447" cy="11.327" rx="8.447" ry="11.327" transform="translate(388.685 251.256)" fill="#e6e6e6"/>
    <path id="Контур_13" data-name="Контур 13" d="M508.269,455.051c-12.057.342-21.257,21.209-21.036,29.352l.407,14.742,43.659-1.206-.407-14.742C530.663,475.054,520.326,454.727,508.269,455.051Z" transform="translate(-177.185 -177.559)" fill="#3f3d56"/>
    <path id="Контур_14" data-name="Контур 14" d="M343.567,344.247l-.3-15.855,4.158-.1.3,15.8,3.769,230.346-4.159.115" fill="#3f3d56"/>
    <path id="Контур_15" data-name="Контур 15" d="M548.219,551.29l-74.738,2.064c-1.3-7.877.383-44.633,7.111-52.851l5.842-9.92,45.043-2.2,5.264,10.445C550.039,499.912,554.691,536.032,548.219,551.29Z" transform="translate(-177.185 -177.559)" fill="#e6e6e6"/>
    <path id="Контур_16" data-name="Контур 16" d="M520.18,536.813l-18.9.522c-3.647.1-6.768-5.374-6.957-12.2s2.626-12.466,6.273-12.567l18.9-.522c3.647-.1,6.768,5.374,6.957,12.2S523.827,536.712,520.18,536.813Z" transform="translate(-177.185 -177.559)" fill="#d86161"/>
    <path id="Контур_17" data-name="Контур 17" d="M368.086,449.662l37.663,29.268,3.966,62.3-44.706-17.244Z" fill="#e6e6e6"/>
    <path id="Контур_18" data-name="Контур 18" d="M534.754,338.68c-40.413,0-86.857-44.846-127.949-23.539C282.39,379.655,299.516,271.7,263.773,231.552l1.173-2.354c27.059,103.218,51.543,267.692,142.4,83.2,22.759-46.214,97.455,25.22,141.423,23.113l.076,2.829Q541.879,338.681,534.754,338.68Z" transform="translate(-177.185 -177.559)" fill="#f2f2f2"/>
    <path id="Контур_19" data-name="Контур 19" d="M631.751,345.026c-32.216,24.4-96.316,16.691-116.208,58.487-60.228,126.545-111.754,30.148-164.488,19.724l-.486-2.585c52.79,4.378,109.414-2.415,163.751-19.648,49.1-15.571,92.915-38.736,126.692-66.962l1.769,2.209Q637.432,340.725,631.751,345.026Z" transform="translate(-177.185 -177.559)" fill="#f2f2f2"/>
    <ellipse id="Эллипс_3" data-name="Эллипс 3" cx="8.447" cy="11.327" rx="8.447" ry="11.327" transform="translate(95.685 139.256)" fill="#e6e6e6"/>
    <ellipse id="Эллипс_4" data-name="Эллипс 4" cx="8.447" cy="11.327" rx="8.447" ry="11.327" transform="translate(357.685 47.256)" fill="#e6e6e6"/>
    <path id="Контур_20" data-name="Контур 20" d="M358.656,385.188c-3.862,2.573-7.815-3.551-3.878-6.01C358.639,376.605,362.592,382.729,358.656,385.188Z" transform="translate(-177.185 -177.559)" fill="#e6e6e6"/>
    <path id="Контур_21" data-name="Контур 21" d="M501.656,184.188c-3.862,2.573-7.815-3.551-3.878-6.01C501.639,175.6,505.592,181.729,501.656,184.188Z" transform="translate(-177.185 -177.559)" fill="#e6e6e6"/>
    <path id="Контур_22" data-name="Контур 22" d="M408.749,125.8l-2.457-.539.538-2.458-1.638-.359-.539,2.458-2.457-.538L401.837,126l2.457.539L403.756,129l1.638.359.539-2.458,2.457.539Z" fill="#e6e6e6"/>
    <circle id="Эллипс_5" data-name="Эллипс 5" cx="10.702" cy="10.702" r="10.702" transform="translate(172.833 22.035)" fill="#ff6584"/>
    <path id="Контур_23" data-name="Контур 23" d="M439,196.75c-12.057.342-21.257,21.209-21.036,29.352l.407,14.742,43.659-1.206-.407-14.742C461.4,216.753,451.059,196.426,439,196.75Z" transform="translate(-177.185 -177.559)" fill="#3f3d56"/>
    <path id="Контур_24" data-name="Контур 24" d="M465,754.968l-19.832.548a13.812,13.812,0,0,1-8.486-2.379c-2.154-1.6-3.142-3.768-2.708-5.943l3.9-19.613c.736-3.7,5.27-6.5,10.78-6.649l10.952-.3c5.51-.152,10.192,2.39,11.13,6.044l4.979,19.367c.552,2.148-.314,4.365-2.376,6.083A13.812,13.812,0,0,1,465,754.968Z" transform="translate(-177.185 -177.559)" fill="#3f3d56"/>
    <rect id="Прямоугольник_5" data-name="Прямоугольник 5" width="64.474" height="440.016" transform="translate(232.207 114.817) rotate(-1.582)" fill="#e6e6e6"/>
    <path id="Контур_25" data-name="Контур 25" d="M270.868,325.949l-.305-15.855,4.158-.1.3,15.8L278.8,556.141l-4.159.115" fill="#3f3d56"/>
    <path id="Контур_26" data-name="Контур 26" d="M486.531,330.851,399.2,333.262c-1.523-9.2.447-52.15,8.308-61.752l2.154-11.462,60.3-1.665,3.155,11.171C481.777,276.922,486.242,319.985,486.531,330.851Z" transform="translate(-177.185 -177.559)" fill="#e6e6e6"/>
    <path id="Контур_27" data-name="Контур 27" d="M471.87,259.735l-62.223,1.718c-2.3.063-4.193-1.142-4.236-2.693a1.952,1.952,0,0,1,.1-.658l9.665-29.775c.414-1.275,2.061-2.211,3.984-2.264l41.264-1.139c1.923-.053,3.619.791,4.1,2.041l11.293,29.2c.578,1.493-.756,3.047-2.98,3.471A6.079,6.079,0,0,1,471.87,259.735Z" transform="translate(-177.185 -177.559)" fill="#e6e6e6"/>
    <path id="Контур_28" data-name="Контур 28" d="M415.786,501.486a7.628,7.628,0,0,1-1.581-.915,5.6,5.6,0,0,1-2.379-4.322l-2.261-81.878c-.093-3.389,3.225-6.241,7.4-6.356l55.7-1.538c4.173-.116,7.643,2.549,7.737,5.938l2.261,81.878a5.6,5.6,0,0,1-2.137,4.446,8.506,8.506,0,0,1-5.261,1.91l-55.7,1.538a8.92,8.92,0,0,1-3.777-.7Z" transform="translate(-177.185 -177.559)" fill="#3f3d56"/>
    <path id="Контур_29" data-name="Контур 29" d="M451.438,254.466l-18.9.522c-3.647.1-6.731-4.02-6.874-9.184s2.709-9.449,6.356-9.55l18.9-.522c3.647-.1,6.731,4.02,6.874,9.184S455.085,254.365,451.438,254.466Z" transform="translate(-177.185 -177.559)" fill="#d86161"/>
    <path id="Контур_30" data-name="Контур 30" d="M898.194,740.087h-22V580.21c18.4-1.32,32.233-6.955,32.233-13.707,0-7.732-18.132-14-40.5-14s-40.5,6.268-40.5,14c0,6.818,14.1,12.494,32.767,13.742V740.087h-22a8,8,0,0,0,0,16h60a8,8,0,0,0,0-16Z" transform="translate(-177.185 -177.559)" fill="#e6e6e6"/>
    <path id="Контур_31" data-name="Контур 31" d="M676.847,481.363l-7.227,7.875-33.814-24.126,10.665-11.623Z" fill="#a0616a"/>
    <path id="Контур_32" data-name="Контур 32" d="M835.554,679.707a13.322,13.322,0,0,0,4.336,9.307l.318.3,9.478-10.329,13.821-15.064-10.2-9.367-1.842,2.012-.192.207-9.182,4.343-1.946.925-.333.155-.732,7.865v.007a13.283,13.283,0,0,0-3.522,9.641Z" transform="translate(-177.185 -177.559)" fill="#2f2e41"/>
    <path id="Контур_33" data-name="Контур 33" d="M714.287,559.924l-10.227,3.107-16.85-37.968,15.094-4.585Z" fill="#a0616a"/>
    <path id="Контур_34" data-name="Контур 34" d="M863.987,756.2l.126.422,32.976-10.018-4.025-13.251-2.6.792-.274.081-12.26-1.125-.363-.03-4.639,6.4a13.413,13.413,0,0,0-8.938,16.728Z" transform="translate(-177.185 -177.559)" fill="#2f2e41"/>
    <path id="Path_17" data-name="Path 17" d="M807.142,538.687s-65.294,63.042-24.016,82.556h12.758A84.5,84.5,0,0,1,808.5,596.135c1.205-1.577,5.721-1.257,6.975-2.794,7.657-9.387,15.958-17.448,21.691-17.128l-1.372,43.558-2.22,15.537c-1.165,8.032,31.727,78.161,31.727,78.161l20.674-8.125s-21.54-57.762-21.792-66.089l17.262-91.562Z" transform="translate(-177.185 -177.559)" fill="#2f2e41"/>
    <path id="Контур_35" data-name="Контур 35" d="M801.7,541.8a3.89,3.89,0,0,0,1.273,1.154,8.99,8.99,0,0,0,2.671.992c14.7,3.337,62.726,10.254,75.192,6.955,1.532-.4,2.53-.962,2.856-1.7,1.043-2.338.91-12.215.3-24.142-.111-2.234-2.575-4.654-2.723-6.992-.1-1.753,2.109-3.4,1.99-5.186-.814-12.06-1.864-24.349-2.567-32.118-.444-4.994-.747-8.116-.747-8.116l7.584-47.817-.355-.585-.4-.2-24.453-12.1-1.332-3.4a5.267,5.267,0,0,0-4.876-3.337L840,405.129a5.249,5.249,0,0,0-4.284,2.175l-4.365,6.045-28.855,18.5.111.34,13.539,41.2.067,3.211v.007l.5,25.821-1.4,3.5,1.576,5.741s-.725,6.711-4.609,11.7c-3.522,4.528-8.005,9.248-10.033,13.081v.007C801.128,538.571,800.751,540.405,801.7,541.8Z" transform="translate(-177.185 -177.559)" fill="#d86161"/>
    <path id="Path_18" data-name="Path 18" d="M779.991,617.5l3.49,4.41s32.1,22.456,33.2,24.555l5.073,4.8,12.274-13.12-6.383-8a50.107,50.107,0,0,0-19.221-14.716h0l-9.782-8.679Z" transform="translate(-177.185 -177.559)" fill="#2f2e41"/>
    <path id="Контур_36" data-name="Контур 36" d="M895.61,556.69l-5.845-56.578-1.543-23.286,16.36-2.958s-.648,16.65,1.495,26.044c2.115,9.27.281,55.535.15,56.773a7.96,7.96,0,1,1-10.617.005Z" transform="translate(-177.185 -177.559)" fill="#a0616a"/>
    <path id="Контур_37" data-name="Контур 37" d="M876.128,471.006l4.558,9.751,1.591,3.4,4.284,22.433,2.138,2.271,1.842,7.332.866-.178,15.611-3.233,4.55-.94A8.649,8.649,0,0,0,910,501.015c-.311-.281-.57-.555-.562-.814.259-15.6-.7-44.1-9.315-55.823-2.737-3.722-4.38-7.428-6.77-10.018-.007-.007-.007-.015-.015-.015l-5.815-9.522-.355-.585-.4-.2Z" transform="translate(-177.185 -177.559)" fill="#d86161"/>
    <circle id="Ellipse_5" data-name="Ellipse 5" cx="21.431" cy="21.431" r="21.431" transform="translate(650.697 180.7)" fill="#a0616a"/>
    <path id="Контур_38" data-name="Контур 38" d="M874.761,375.079c.628-3.6,1.117-8.27-.681-12.42-1.519-3.493-5.32-6.768-9.545-6.326a4.4,4.4,0,0,0-1.373-4.4,11.555,11.555,0,0,0-4.688-2.2c-3.971-1.167-8.084-2.377-12.332-2.4-4.767-.026-8.99,1.607-11.58,4.486l-.063.093-.776,1.854a1.868,1.868,0,0,1-1.149,1.057,1.836,1.836,0,0,1-1.554-.19A1.695,1.695,0,0,0,828.439,356l-.041.791-1.112-.443a1.69,1.69,0,0,0-2.3,1.851l.148.941a1.811,1.811,0,0,0-1.38.311,1.655,1.655,0,0,0-.589,1.86,15.4,15.4,0,0,0,4.284,6.4,12.8,12.8,0,0,0,2.908,1.977q.329.166.685.315a76.253,76.253,0,0,0,26.963,6.108,15.655,15.655,0,0,0-1.674,5.372,5.875,5.875,0,0,0,2.514,5.541,7.4,7.4,0,0,0,1.2.552,7.949,7.949,0,0,1,1.155.535,3.6,3.6,0,0,1-.148,6.243s1.595,1.947,1.85,1.914a4.982,4.982,0,0,0,2.625-1.553C870.173,390.2,873.278,383.6,874.761,375.079Z" transform="translate(-177.185 -177.559)" fill="#2f2e41"/>
    <path id="Контур_39" data-name="Контур 39" d="M968.583,706.352l.931-20.943a67.64,67.64,0,0,1,31.55-7.986c-15.153,12.388-13.259,36.269-23.532,52.929a40.686,40.686,0,0,1-29.835,18.8l-12.68,7.764a68.176,68.176,0,0,1,14.37-55.246,65.85,65.85,0,0,1,12.1-11.246C964.526,698.433,968.583,706.352,968.583,706.352Z" transform="translate(-177.185 -177.559)" fill="#f2f2f2"/>
    <path id="Контур_40" data-name="Контур 40" d="M1032.342,757.913a1.549,1.549,0,0,1-1.553,1.553H178.739a1.553,1.553,0,0,1,0-3.106h852.05a1.549,1.549,0,0,1,1.553,1.553Z" transform="translate(-177.185 -177.559)" fill="#ccc"/>
    <path id="Контур_41" data-name="Контур 41" d="M543.683,601.125a8.51,8.51,0,0,1-8.731-8.262l-.662-23.991a8.5,8.5,0,0,1,16.994-.469l.662,23.991a8.51,8.51,0,0,1-8.262,8.731Z" transform="translate(-177.185 -177.559)" fill="#3f3d56"/>
    <path id="Контур_42" data-name="Контур 42" d="M918.54,688.807q-19.368,0-42.457-1.464c-79.614-5.056-182.738-22.633-290.376-49.492s-206.93-59.794-279.585-92.734c-35.393-16.047-62.556-31.236-80.735-45.147-19.247-14.727-27.666-27.564-25.024-38.153,5.148-20.629,50.731-25.142,88.064-25.3l.013,3c-51.268.21-81.514,8.387-85.166,23.022-4.652,18.64,33.287,47.741,104.087,79.841,72.5,32.868,171.605,65.739,279.073,92.557s210.4,44.363,289.84,49.408c77.579,4.928,124.743-2.937,129.395-21.578,3.862-15.477-21.6-38.275-71.689-64.2l1.379-2.664c36.4,18.836,78.646,45.852,73.222,67.589-2.643,10.589-16.105,17.965-40.015,21.923C954.935,687.676,938.194,688.807,918.54,688.807Z" transform="translate(-177.185 -177.559)" fill="#ccc"/>
    <path id="Контур_43" data-name="Контур 43" d="M233.244,669.154c-10.246,0-16.907-2.546-19.855-7.607-5.814-9.98,3.923-27.493,28.941-52.051l2.1,2.141c-23.239,22.813-33.343,40-28.451,48.4,3.1,5.313,12.309,7.217,26.648,5.5,14.235-1.7,33.1-6.765,56.072-15.055,47.291-17.067,106.623-45.856,167.065-81.064s114.75-72.616,152.927-105.335c7.333-6.286,13.987-12.333,19.779-17.971a196.967,196.967,0,0,0,20.976-23.377c8.563-11.627,11.453-20.581,8.358-25.895-5.17-8.875-26.888-8.04-61.156,2.353l-.87-2.871c36.766-11.149,58.507-11.483,64.619-.992,3.8,6.519.926,16.337-8.534,29.184a199.918,199.918,0,0,1-21.3,23.748c-5.837,5.683-12.539,11.772-19.92,18.1-38.31,32.833-92.777,70.354-153.369,105.649s-120.1,64.168-167.556,81.295c-23.185,8.367-42.273,13.485-56.735,15.211a82.686,82.686,0,0,1-9.74.635Z" transform="translate(-177.185 -177.559)" fill="#ccc"/>
    <path id="Контур_44" data-name="Контур 44" d="M780.787,545.982c-7.414-.148-47.24-1.291-53.771-1.01-.369-1.293-12.75,14.573-13.051,14.671a1.808,1.808,0,0,0,.6,2.908c.728.442,64.932-.746,65.71-.591a1.786,1.786,0,0,0,1.594-1.038l.429-.961c.045-1.644.583-10.048.1-11.485a1.778,1.778,0,0,0-1.615-2.494Z" transform="translate(-177.185 -177.559)" fill="#e6e6e6"/>
    <path id="Контур_45" data-name="Контур 45" d="M782.3,559.959c-.377.906-.859,2.043-2.023,2l-65.032.73a1.794,1.794,0,0,1-1.565-2.633Z" transform="translate(-177.185 -177.559)" opacity="0.17" style="isolation: isolate"/>
    <path id="Контур_46" data-name="Контур 46" d="M727.32,544.777c-.7-1.211-18.086-87.238-19.537-87.958L695.913,442.3l-1.061-.8c-1.475-.81-5.014-.262-4.7,1.991h0c2.789,13.37,20.726,89.518,21.119,101.39l2.159,15.124a1.862,1.862,0,0,0,2.3,1.53,3.583,3.583,0,0,0,2.877-2.079C718.773,558.923,728.133,545.087,727.32,544.777Z" transform="translate(-177.185 -177.559)" fill="#e6e6e6"/>
    <path id="Контур_47" data-name="Контур 47" d="M695.91,442.3l22.7,117.161c-.759,1.922-4.312,3.268-5.139.747-.014,0-23.291-116.643-23.315-116.713C689.911,440.687,694.549,440.6,695.91,442.3Z" transform="translate(-177.185 -177.559)" opacity="0.17" style="isolation: isolate"/>
    <path id="Контур_48" data-name="Контур 48" d="M519.409,269.531l11.53,16.072,12.942,61.465-6.016,5.248Z" fill="#d86161"/>
    <path id="Контур_49" data-name="Контур 49" d="M773.344,554.269l3.19.13a12.536,12.536,0,0,1,.46-2.76c.48-2.28.91-4.99-1.08-4.98-1.35-.13-1.81,1.58-2.05,3.44a26.319,26.319,0,0,1-.52,4.17Z" transform="translate(-177.185 -177.559)" fill="#2f2e41"/>
    <path id="Контур_50" data-name="Контур 50" d="M755.044,549.979l2.15.08,1.04.04c-.02-1.14.51-3.49-.78-4.07a1.6,1.6,0,0,0-.65-.13c-1.21-.07-1.57.85-1.68,1.91-.07.64-.04,1.32-.06,1.85C755.064,549.769,755.054,549.879,755.044,549.979Z" transform="translate(-177.185 -177.559)" fill="#2f2e41"/>
    <path id="Контур_51" data-name="Контур 51" d="M748.674,549.719l2.16.09,1.03.04c-.02-1.31.67-4.17-1.43-4.21-1.94-.11-1.69,2.36-1.74,3.76C748.694,549.509,748.684,549.619,748.674,549.719Z" transform="translate(-177.185 -177.559)" fill="#2f2e41"/>
    <path id="Контур_52" data-name="Контур 52" d="M742.3,549.469l2.15.08,1.04.04c-.02-1.3.67-4.16-1.43-4.2-1.94-.12-1.69,2.35-1.74,3.76C742.324,549.259,742.314,549.369,742.3,549.469Z" transform="translate(-177.185 -177.559)" fill="#2f2e41"/>
    <path id="Контур_53" data-name="Контур 53" d="M735.934,549.209l2.16.09,1.03.04c-.02-1.31.67-4.16-1.43-4.21-1.94-.11-1.69,2.36-1.74,3.76C735.954,549,735.944,549.109,735.934,549.209Z" transform="translate(-177.185 -177.559)" fill="#2f2e41"/>
    <path id="Контур_54" data-name="Контур 54" d="M729.564,548.959l2.15.08,1.04.04c-.02-1.2.56-3.71-.98-4.14h-.01a1.465,1.465,0,0,0-.44-.06,1.507,1.507,0,0,0-.54.05h-.01c-1.34.35-1.15,2.45-1.19,3.71C729.584,548.749,729.574,548.859,729.564,548.959Z" transform="translate(-177.185 -177.559)" fill="#2f2e41"/>
    <path id="Контур_55" data-name="Контур 55" d="M766.914,548.279l3.19.13c0-.12,0-.25.01-.4a13.322,13.322,0,0,0,.04-2.29c-.11-.84-.47-1.5-1.48-1.52-1.03-.06-1.44.6-1.6,1.45a3.119,3.119,0,0,0-.08.44v.01C766.914,546.879,766.964,547.719,766.914,548.279Z" transform="translate(-177.185 -177.559)" fill="#2f2e41"/>
    <path id="Контур_56" data-name="Контур 56" d="M760.544,548.019l3.19.13a23.3,23.3,0,0,0,.06-2.58c-.09-.88-.44-1.6-1.49-1.62-1.06-.07-1.47.65-1.63,1.54C760.524,546.349,760.6,547.379,760.544,548.019Z" transform="translate(-177.185 -177.559)" fill="#2f2e41"/>
    <path id="Контур_57" data-name="Контур 57" d="M754.174,547.769l.95.04,2.24.09c-.01-.48.08-1.18.09-1.87a4.232,4.232,0,0,0-.02-.62c-.08-.93-.41-1.7-1.5-1.72-1.11-.06-1.5.71-1.64,1.65C754.154,546.179,754.234,547.149,754.174,547.769Z" transform="translate(-177.185 -177.559)" fill="#2f2e41"/>
    <path id="Контур_58" data-name="Контур 58" d="M766.974,554.019l3.19.12c-.01-1.3.67-4.16-1.43-4.2C766.634,549.809,767.094,552.709,766.974,554.019Z" transform="translate(-177.185 -177.559)" fill="#2f2e41"/>
    <path id="Контур_59" data-name="Контур 59" d="M760.6,553.759l3.19.13c-.01-1.31.67-4.17-1.43-4.21C760.264,549.559,760.724,552.459,760.6,553.759Z" transform="translate(-177.185 -177.559)" fill="#2f2e41"/>
    <path id="Контур_60" data-name="Контур 60" d="M754.234,553.509l3.19.12c-.01-.93.34-2.65-.23-3.57a1.32,1.32,0,0,0-1.2-.63,1.405,1.405,0,0,0-.93.23C754.044,550.329,754.334,552.449,754.234,553.509Z" transform="translate(-177.185 -177.559)" fill="#2f2e41"/>
    <path id="Контур_61" data-name="Контур 61" d="M747.864,553.249l3.19.13c-.01-.93.33-2.64-.22-3.57a1.324,1.324,0,0,0-1.21-.64,1.39,1.39,0,0,0-.93.23C747.674,550.089,747.964,552.2,747.864,553.249Z" transform="translate(-177.185 -177.559)" fill="#2f2e41"/>
    <path id="Контур_62" data-name="Контур 62" d="M741.494,553l3.19.12c-.01-.93.34-2.65-.23-3.57a1.319,1.319,0,0,0-1.2-.63,1.405,1.405,0,0,0-.93.23C741.3,549.819,741.594,551.939,741.494,553Z" transform="translate(-177.185 -177.559)" fill="#2f2e41"/>
    <path id="Контур_63" data-name="Контур 63" d="M735.124,552.739l3.19.13c-.01-.93.33-2.64-.22-3.57a1.313,1.313,0,0,0-1.21-.64,1.389,1.389,0,0,0-.93.23C734.934,549.579,735.224,551.689,735.124,552.739Z" transform="translate(-177.185 -177.559)" fill="#2f2e41"/>
    <path id="Контур_64" data-name="Контур 64" d="M728.754,552.489l3.19.12c-.01-.93.33-2.64-.23-3.57a1.308,1.308,0,0,0-1.2-.63,1.405,1.405,0,0,0-.93.23C728.564,549.319,728.854,551.429,728.754,552.489Z" transform="translate(-177.185 -177.559)" fill="#2f2e41"/>
    <path id="Контур_65" data-name="Контур 65" d="M764.78,543.245l24.313-51.421,9.193-21.45-14.448-8.227s-4.921,15.919-10.064,24.067c-5.075,8.04-18.718,52.287-19.006,53.5a7.96,7.96,0,1,0,10.012,3.533Z" transform="translate(-177.185 -177.559)" fill="#a0616a"/>
    <path id="Контур_66" data-name="Контур 66" d="M764.632,495.638l18.388,11.093,4.17-6.3L789.967,499l11.494-19.737L811.624,468.9l13.427-42.919-17.47,2.621-.023.007c-3.112,1.651-5.9,4.6-9.713,7.2-12.026,8.2-22.4,34.752-27.336,49.559-.081.243-.414.412-.8.578a8.653,8.653,0,0,0-5.078,9.685Z" transform="translate(-177.185 -177.559)" fill="#d86161"/>
</svg>
